<svg width="40" height="92" fill="none" xmlns="http://www.w3.org/2000/svg"><path d="M19.749 25l4.551 3.385a2.611 2.611 0 01-1.628.878v8.4c-.042.25-2.38 1.045-3.841 1.045h-.752v-2.55h-7.432v1.881c0 .293-1.336 1.255-3.591 1.255H6.3V31.98a17.757 17.757 0 01-5.506 6.187l-.418-.418C4.218 32.022 4.551 24.874 4.551 19.1v-6.35A33.208 33.208 0 01.334 15.3L0 14.924A39.567 39.567 0 009.395 0l6.764 1.38c-.167.5-.543.753-1.628.919 14.279 2.592 9.311 11.12 5.511 8.277a16.216 16.216 0 00-5.929-7.859A37.9 37.9 0 018.56 9.448h5.01l2.087-2.675s2.422 1.839 3.883 3.177c-.125.46-.543.67-1.127.67H8.142l-.167-.627a37.49 37.49 0 01-2.464 2.048l4.175 1.547h7.6l2.13-2.341 4.551 3.386a3.228 3.228 0 01-1.712.919v8.318c-.041.251-2.338 1.087-3.8 1.087H17.7V23.7H8.727a29.153 29.153 0 01-.376 2.55l2.839 1.087h6.471L19.749 25zM17.7 22.532v-3.26H8.977c0 1.003-.042 2.09-.125 3.261l8.848-.001zm-8.723-7.775V18.1H17.7v-3.343H8.977zm9.1 20.191v-6.437h-7.43v6.438l7.43-.001zM30.1 29.1c0 .46-1.837 1.3-3.424 1.3h-.793V3.637l5.637.544c-.084.544-.418.92-1.42 1.087V29.1zm9.4-27.636c-.125.627-.542 1.045-1.545 1.17v31.227c0 3.261-.668 5.1-5.887 5.6a5.847 5.847 0 00-.96-3.3 5.4 5.4 0 00-3.549-1.547v-.586s4.133.251 5.011.251c.668 0 .877-.209.877-.753V.836l6.053.628zM12.151 65.441c-.126.376-.5.668-1.295.836v23.87c-.084.376-2.088 1.421-4.008 1.421h-.919V69.705a33.665 33.665 0 01-5.386 5.016l-.5-.376c3.716-5.226 7.6-13.712 9.686-22.072l6.639 2.219c-.209.544-.752.878-1.67.836a60.644 60.644 0 01-4.843 9.28l2.296.833zm15.658-3.01v7.734h3.34l2.547-3.344s2.882 2.3 4.676 3.888c-.125.459-.584.669-1.169.669h-9.394v7.9h3.59l2.8-3.637s3.09 2.467 5.01 4.139c-.125.459-.584.669-1.211.669H27.809v9.782c0 .293-1.545 1.3-4.134 1.3h-.918v-29.1h-1a37.564 37.564 0 01-9.353 9.949l-.459-.334a67.46 67.46 0 008.6-19.732l6.722 2.383c-.209.544-.752.878-1.712.794a54.505 54.505 0 01-3.09 5.811h9.812l2.755-3.595s3.09 2.424 4.969 4.055c-.125.46-.584.669-1.169.669H27.809z" fill="#fff"/></svg>